<svg xmlns="http://www.w3.org/2000/svg" version="1.1" xmlns:xlink="http://www.w3.org/1999/xlink" xmlns:svgjs="http://svgjs.dev/svgjs" width="1440" height="560" preserveAspectRatio="none" viewBox="0 0 1440 560"><g mask="url(&quot;#SvgjsMask1001&quot;)" fill="none"><path d="M1536 560L0 560 L0 288.02Q92.34 260.36, 120 352.7Q185.5 298.2, 240 363.71Q273.73 277.44, 360 311.17Q412.49 243.66, 480 296.15Q536.09 280.24, 552 336.32Q624.93 289.25, 672 362.19Q694.64 264.84, 792 287.48Q862.84 238.32, 912 309.16Q981.43 258.59, 1032 328.02Q1113.89 289.91, 1152 371.81Q1196.49 296.3, 1272 340.79Q1297.18 293.97, 1344 319.15Q1402.39 305.54, 1416 363.94Q1438.18 266.12, 1536 288.3z" fill="#182f5d"></path><path d="M1464 560L0 560 L0 392.97Q46.62 367.59, 72 414.2Q140.75 362.94, 192 431.69Q220.32 340.01, 312 368.34Q386.55 322.89, 432 397.44Q469.44 314.88, 552 352.33Q622.78 303.11, 672 373.88Q727.6 357.48, 744 413.07Q787.32 384.38, 816 427.7Q834.99 374.69, 888 393.68Q956.33 342.01, 1008 410.34Q1060.47 390.81, 1080 443.28Q1105.17 348.45, 1200 373.62Q1244.49 346.11, 1272 390.6Q1348.24 346.84, 1392 423.08Q1420 379.08, 1464 407.08z" fill="#25467d"></path><path d="M1560 560L0 560 L0 485.43Q22 435.44, 72 457.44Q126.16 391.6, 192 445.76Q240.85 422.61, 264 471.45Q276.8 412.25, 336 425.04Q403.71 372.75, 456 440.46Q553.73 418.19, 576 515.92Q612.94 432.86, 696 469.79Q739.98 441.77, 768 485.75Q799.79 397.54, 888 429.33Q963.99 385.32, 1008 461.31Q1069.88 451.18, 1080 513.06Q1098.24 459.3, 1152 477.54Q1198.4 451.94, 1224 498.34Q1241.24 443.57, 1296 460.81Q1312.05 404.86, 1368 420.9Q1412.65 393.55, 1440 438.2Q1532.11 410.31, 1560 502.42z" fill="#356cb1"></path><path d="M1488 560L0 560 L0 547.65Q38.78 514.43, 72 553.22Q111.62 472.84, 192 512.45Q287.93 488.38, 312 584.32Q366.24 518.56, 432 572.79Q479.92 500.71, 552 548.64Q617.62 494.26, 672 559.88Q689.66 505.54, 744 523.2Q815.13 474.33, 864 545.45Q904.86 466.31, 984 507.16Q1053.79 456.95, 1104 526.73Q1164.71 515.44, 1176 576.15Q1230.91 511.06, 1296 565.96Q1322.38 472.34, 1416 498.72Q1460.71 471.43, 1488 516.14z" fill="white"></path></g><defs><mask id="SvgjsMask1001"><rect width="1440" height="560" fill="#ffffff"></rect></mask></defs></svg>